<svg width="16" height="16" viewBox="0 0 16 16" fill="none" xmlns="http://www.w3.org/2000/svg">
    <path
        d="M9.02 0 C9.44 0 9.84 0.17 10.14 0.46 L15.53 5.85 C15.83 6.15 15.99 6.55 15.99 6.97 V9.02 C15.99 9.44 15.83 9.84 15.53 10.14 L10.14 15.53 C9.84 15.83 9.44 15.99 9.02 15.99 H6.97 C6.55 15.99 6.15 15.83 5.85 15.53 L0.46 10.14 C0.17 9.84 0 9.44 0 9.02 V6.97 C0 6.55 0.17 6.15 0.46 5.85 L5.85 0.46 C6.15 0.17 6.55 0 6.97 0 L9.02 0 Z M9.12 4.28 C8.50 3.66 7.50 3.66 6.88 4.28 L4.28 6.88 C3.66 7.50 3.66 8.50 4.28 9.12 L6.88 11.71 C7.50 12.33 8.50 12.33 9.12 11.71 L11.71 9.12 C12.33 8.50 12.33 7.50 11.71 6.88 L9.12 4.28 Z"
        fill="black" />
</svg>